<svg xmlns="http://www.w3.org/2000/svg" xmlns:xlink="http://www.w3.org/1999/xlink" version="1.1" id="Calque_1" x="0px" y="0px" width="100px" height="100px" viewBox="0 0 100 100" enable-background="new 0 0 100 100" xml:space="preserve">
<g id="Captions">
	<rect x="-744" y="-414" width="185" height="99"/>
	<rect x="-552" y="-450" width="100" height="30"/>
	<text transform="matrix(1 0 0 1 -485.9995 -433.5)" fill="#000000" font-family="'Helvetica'" font-size="2.4">http://thenounproject.com</text>
	<text transform="matrix(1 0 0 1 -544.8335 -438.5)" fill="#000000" font-family="'Helvetica-Bold'" font-size="6.1578">The Noun Project</text>
	<text transform="matrix(1 0 0 1 -543.7144 -433.6992)" fill="#000000" font-family="'Helvetica-Bold'" font-size="4">Icon Template</text>
	<text transform="matrix(1 0 0 1 -730.4995 -403.5)" fill="#000000" font-family="'Helvetica-Bold'" font-size="6.1578">Reminders</text>
	<line fill="#000000" stroke="#FFFFFF" stroke-miterlimit="10" x1="-544" y1="-428.5" x2="-534" y2="-428.5"/>
	<line fill="#000000" stroke="#FFFFFF" stroke-miterlimit="10" x1="-731" y1="-397.5" x2="-714" y2="-397.5"/>
	<g>
		<g>
			<g>
				<rect x="-722.802" y="-382.682" fill="#000000" width="8.721" height="8.642"/>
				<path fill="#000000" d="M-716.455-371.688h4.747v-4.703h-4.747V-371.688z M-711.266-371.251h-5.63v-5.579h5.63V-371.251      L-711.266-371.251z M-718.221-369.938h8.279v-8.203h-8.279V-369.938L-718.221-369.938z M-709.5-369.5h-9.163v-9.079h9.163      V-369.5L-709.5-369.5z"/>
				<polygon fill="#000000" points="-718.149,-369.867 -718.292,-370.009 -710.013,-378.213 -709.871,-378.071     "/>
			</g>
		</g>
	</g>
	<rect x="-731" y="-356" fill="none" width="35" height="32.5"/>
	<text transform="matrix(1 0 0 1 -730.9995 -353.8418)" fill="#000000" font-family="'Helvetica-Bold'" font-size="3">Strokes</text>
	<text transform="matrix(1 0 0 1 -730.9995 -348.8418)" fill="#000000" font-family="'Helvetica'" font-size="2.4">Try to keep strokes at 4px</text>
	<text transform="matrix(1 0 0 1 -730.9995 -343.8418)" fill="#000000" font-family="'Helvetica'" font-size="2.4">Minimum stroke weight is 2px</text>
	<text transform="matrix(1 0 0 1 -730.9995 -339.3418)" fill="#000000" font-family="'Helvetica'" font-size="2.4">For thicker strokes use even </text>
	<text transform="matrix(1 0 0 1 -730.9995 -336.3418)" fill="#000000" font-family="'Helvetica'" font-size="2.4">numbers: 6px, 8px etc.</text>
	<text transform="matrix(1 0 0 1 -730.9995 -331.8418)" fill="#000000" font-family="'Helvetica-Bold'" font-size="2.4">Remember to expand strokes </text>
	<text transform="matrix(1 0 0 1 -730.9995 -328.8418)" fill="#000000" font-family="'Helvetica-Bold'" font-size="2.4">before saving as an SVG </text>
	<rect x="-688.5" y="-356" fill="none" width="35" height="32.5"/>
	<text transform="matrix(1 0 0 1 -688.4995 -353.8418)" fill="#000000" font-family="'Helvetica-Bold'" font-size="3">Size</text>
	<text transform="matrix(1 0 0 1 -688.4995 -348.8418)" fill="#000000" font-family="'Helvetica'" font-size="2.4">Cannot be wider or taller than </text>
	<text transform="matrix(1 0 0 1 -688.4995 -345.3418)" fill="#000000" font-family="'Helvetica'" font-size="2.4">100px (artboard size)</text>
	<text transform="matrix(1 0 0 1 -688.4995 -340.3418)" fill="#000000" font-family="'Helvetica'" font-size="2.4">Scale your icon to fill as much of </text>
	<text transform="matrix(1 0 0 1 -688.4995 -337.3418)" fill="#000000" font-family="'Helvetica'" font-size="2.4">the artboard as possible</text>
	<rect x="-646" y="-356" fill="none" width="35" height="32.5"/>
	<text transform="matrix(1 0 0 1 -645.9995 -353.8418)" fill="#000000" font-family="'Helvetica-Bold'" font-size="3">Ungroup</text>
	<text transform="matrix(1 0 0 1 -645.9995 -348.8418)" fill="#000000" font-family="'Helvetica'" font-size="2.4">If your design has more than one </text>
	<text transform="matrix(1 0 0 1 -645.9995 -345.8418)" fill="#000000" font-family="'Helvetica'" font-size="2.4">shape, make sure to ungroup</text>
	<rect x="-602" y="-356" fill="none" width="35" height="32.5"/>
	<text transform="matrix(1 0 0 1 -601.9995 -353.8418)" fill="#000000" font-family="'Helvetica-Bold'" font-size="3">Save as</text>
	<text transform="matrix(1 0 0 1 -601.9995 -348.8418)" fill="#000000" font-family="'Helvetica'" font-size="2.4">Save as .SVG and make sure </text>
	<text transform="matrix(1 0 0 1 -601.9995 -345.8418)" fill="#000000" font-family="'Helvetica'" font-size="2.4">&#8220;Use Artboards&#8221; is checked</text>
	<text transform="matrix(1.0074 0 0 1 -677.5425 -383.4062)" fill="#000000" font-family="'Helvetica'" font-size="2.5731">100px</text>
	<text transform="matrix(1.0074 0 0 1 -592.9995 -375)" fill="#000000" font-family="'Helvetica-Bold'" font-size="5.1462">.SVG</text>
	<rect x="-678.514" y="-379.185" fill="#000000" width="10.261" height="10.185"/>
	<rect x="-678.477" y="-382.234" fill="#000000" width="0.522" height="2.337"/>
	<rect x="-668.812" y="-382.234" fill="#000000" width="0.523" height="2.337"/>
	<rect x="-679" y="-381.663" fill="#000000" width="11.233" height="0.572"/>
	<g>
		<rect x="-635.805" y="-380.156" fill="#000000" width="10.305" height="10.156"/>
		<rect x="-628.809" y="-385.293" fill="#000000" width="3.308" height="3.261"/>
	</g>
	<rect x="-730.5" y="-391.5" fill="#000000" stroke="#FFFFFF" stroke-miterlimit="10" width="30" height="30"/>
	<rect x="-688.5" y="-391.5" fill="#000000" stroke="#FFFFFF" stroke-miterlimit="10" width="30" height="30"/>
	<rect x="-645.5" y="-391.5" fill="#000000" stroke="#FFFFFF" stroke-miterlimit="10" width="30" height="30"/>
	<rect x="-601.5" y="-391.5" fill="#000000" stroke="#FFFFFF" stroke-miterlimit="10" width="30" height="30"/>
</g>
<g id="Your_Icon">
	<g>
		<path d="M-517.384-362.472c4.111,2.507,8.986,3.344,15.384,3.344s11.545-1.256,15.384-3.342c1.705-0.927,4.28-4.448,6.797-9.002    c10.399-0.473,16.714-6.496,16.857-12.412c0.09-3.687-2.324-8.009-9.133-9.247c0.069-0.708,0.111-1.393,0.111-2.044    c0-3.087,0-11.289-30.017-11.289s-30.017,8.202-30.017,11.29C-532.017-384.524-521.682-365.093-517.384-362.472z     M-475.149-393.455l-0.179,4.458l0,0L-475.149-393.455z M-472.882-388h0.002c3.46,0,5.512,1.996,5.455,4.369    c-0.069,2.813-3.322,6.87-9.988,7.956C-475.516-379.735-473.85-384-472.882-388z M-525.318-395.173    c0-2.536,10.439-4.592,23.318-4.592s23.318,2.056,23.318,4.592c0,2.536-10.439,4.592-23.318,4.592    S-525.318-392.637-525.318-395.173z"/>
		<path d="M-453.191-350.783c-0.486-0.2-1.008-0.19-1.463-0.016l-0.73,0.297l-2.503,1.005c-1.577,0.633-3.438,0.615-5.159-0.098    c-1.707-0.709-2.906-2.082-3.569-3.648c-0.639-1.576-0.77-3.41-0.061-5.119c0.713-1.721,2.017-3.048,3.575-3.717l2.483-1.059    l0.727-0.307c0.442-0.199,0.822-0.557,1.022-1.045c0.405-0.977-0.044-2.093-1.005-2.489l-0.148-0.063    c-2.917-1.014-6.173-0.936-9.26,0.379c-4.48,1.917-7.439,6.021-8.106,10.569l-7.079,2.926L-502-345.905l-17.532-7.264    l-7.079-2.926c-0.667-4.548-3.626-8.652-8.106-10.569c-3.087-1.314-6.343-1.393-9.26-0.379l-0.148,0.063    c-0.961,0.396-1.41,1.513-1.005,2.489c0.2,0.488,0.58,0.846,1.022,1.045l0.727,0.307l2.483,1.059    c1.559,0.669,2.862,1.996,3.575,3.717c0.709,1.709,0.578,3.543-0.061,5.119c-0.663,1.566-1.862,2.939-3.569,3.648    c-1.721,0.713-3.582,0.73-5.159,0.098l-2.503-1.005l-0.73-0.297c-0.455-0.175-0.977-0.185-1.463,0.016    c-0.977,0.403-1.447,1.511-1.051,2.472l0.063,0.148c1.345,2.78,3.702,5.023,6.815,6.279c4.522,1.812,9.52,1.012,13.215-1.735    l7.066,2.919l5.067,2.101l-9.925,4.112c-1.581,0.658-2.883,1.978-3.589,3.68c-1.413,3.414,0.2,7.315,3.615,8.728    c1.702,0.707,3.558,0.718,5.141,0.065l22.39-9.278l22.39,9.278c1.583,0.652,3.438,0.642,5.141-0.065    c3.415-1.412,5.028-5.313,3.615-8.728c-0.706-1.702-2.008-3.021-3.589-3.68l-9.925-4.112l5.067-2.101l7.066-2.919    c3.695,2.747,8.692,3.548,13.215,1.735c3.113-1.256,5.471-3.499,6.815-6.279l0.063-0.148    C-451.744-349.272-452.215-350.38-453.191-350.783z M-524.146-327.596c-0.504,1.217-1.901,1.794-3.118,1.291    c-1.216-0.504-1.794-1.901-1.29-3.118c0.506-1.217,1.901-1.795,3.117-1.291C-524.22-330.21-523.642-328.812-524.146-327.596z     M-478.563-330.714c1.216-0.504,2.611,0.074,3.117,1.291c0.504,1.217-0.074,2.614-1.29,3.118    c-1.217,0.503-2.614-0.074-3.118-1.291C-480.358-328.813-479.78-330.21-478.563-330.714z"/>
	</g>
	<path d="M-349.521-366.566c-1.031,1.034-1.879,0.685-1.879-0.776v-20.032c0-1.46-0.841-1.81-1.872-0.779l-21.593,21.587   c-1.031,1.034-2.003,0.69-2.157-0.761l-4.746-44.03c-0.157-1.455-1.481-2.643-2.939-2.643h-9.403c-1.464,0-2.72,1.194-2.797,2.655   l-5.031,94.691c-0.08,1.46,1.055,2.654,2.513,2.654h70.716c1.458,0,2.654-1.197,2.654-2.657v-70.716c0-1.46-0.844-1.81-1.875-0.779   L-349.521-366.566z M-351.4-329.329c0,1.46-1.19,2.654-2.651,2.654h-20.031c-1.464,0-2.654-1.194-2.654-2.654v-20.032   c0-1.46,1.19-2.654,2.654-2.654h20.031c1.461,0,2.651,1.194,2.651,2.654V-329.329z"/>
	<path d="M-176.529-370.312l-14.556-8.454l14.556-8.456c0.327-0.189,0.529-0.54,0.529-0.918s-0.202-0.726-0.529-0.915   l-32.801-18.935c-0.327-0.189-0.733-0.192-1.061,0.002L-226-398.923l-15.606-9.065c-0.33-0.194-0.733-0.192-1.063-0.002   l-32.801,18.935c-0.327,0.189-0.529,0.537-0.529,0.915s0.202,0.729,0.529,0.918l14.556,8.456l-14.556,8.454   c-0.327,0.189-0.529,0.54-0.529,0.918s0.202,0.729,0.529,0.917l15.606,9.007v19.609c0,0.379,0.202,0.729,0.529,0.918l32.801,18.935   c0.022,0.013,0.051,0.019,0.076,0.03c0.031,0.016,0.06,0.026,0.087,0.036c0.12,0.044,0.24,0.074,0.366,0.074   c0.125,0,0.245-0.03,0.362-0.074c0.031-0.01,0.06-0.021,0.087-0.036c0.028-0.01,0.057-0.018,0.08-0.03l32.801-18.935   c0.327-0.189,0.528-0.539,0.528-0.918v-19.603l15.617-9.014c0.327-0.189,0.526-0.54,0.529-0.917   C-176-369.772-176.202-370.123-176.529-370.312z M-209.856-405.848l30.679,17.713l-14.024,8.147l-30.682-17.713L-209.856-405.848z    M-272.822-388.135l30.682-17.713l14.021,8.145l-30.685,17.713L-272.822-388.135z M-272.825-369.399l14.021-8.142l30.685,17.71   l-14.021,8.146L-272.825-369.399z M-227.063-322.764l-30.682-17.71v-17.772l15.075,8.702c0.166,0.095,0.348,0.144,0.529,0.144   c0.187,0,0.368-0.049,0.534-0.146l14.551-8.452L-227.063-322.764z M-224.944-361.952c0,0.585-0.476,1.058-1.061,1.058   c-0.586,0-1.062-0.473-1.062-1.058v-33.627c0-0.588,0.476-1.061,1.062-1.061c0.585,0,1.061,0.473,1.061,1.061V-361.952z    M-194.266-340.474l-30.679,17.71l0.011-35.227l14.543,8.444c0.327,0.191,0.733,0.191,1.061,0.002l15.064-8.696V-340.474z    M-209.856-351.686l-14.024-8.146l30.679-17.715l14.024,8.147L-209.856-351.686z"/>
	<g>
		<path d="M-88.002-369.083c2.422-5.869,12.434-30.137,13.147-31.879C-74.914-408.162-80.79-414-88.002-414    s-13.087,5.838-13.146,13.038C-100.434-399.221-90.423-374.952-88.002-369.083z"/>
		<path d="M-55.188-393.21c-2.485-2.485-5.788-3.854-9.299-3.854c-3.474,0-6.744,1.338-9.216,3.772l-13.248,31.842l30.178-12.557    l1.66-0.692c2.435-2.474,3.774-5.743,3.774-9.216C-51.337-387.425-52.705-390.727-55.188-393.21z"/>
		<path d="M-102.298-393.288c-2.475-2.436-5.741-3.776-9.218-3.776c-3.512,0-6.812,1.368-9.295,3.85    c-5.099,5.103-5.123,13.386-0.077,18.516l8.968,3.73l22.868,9.517L-102.298-393.288z"/>
		<path d="M-121.255-373.547c-7.25,0-13.146,5.898-13.146,13.147c0,7.248,5.896,13.146,13.146,13.146    c0.046,0,0.093,0.006,0.135,0.017l31.646-13.163l-31.652-13.172C-121.173-373.556-121.215-373.547-121.255-373.547z"/>
		<path d="M-55.19-327.592c5.092-5.092,5.123-13.379,0.082-18.51l-31.84-13.249l13.243,31.836c2.477,2.435,5.746,3.775,9.22,3.775    C-60.974-323.739-57.674-325.108-55.19-327.592z"/>
		<path d="M-54.879-347.232c0.042-0.015,0.087-0.021,0.131-0.021c7.249,0,13.149-5.898,13.149-13.146    c0-7.249-5.9-13.147-13.149-13.147c-0.049,0-0.095-0.006-0.142-0.018l-31.64,13.165L-54.879-347.232z"/>
		<path d="M-88.002-314c7.217,0,13.116-5.872,13.147-13.088c0-0.062,0.011-0.12,0.028-0.176L-88-358.927l-13.176,31.673    c0.021,0.052,0.031,0.108,0.031,0.166C-101.114-319.872-95.219-314-88.002-314z"/>
		<path d="M-89.052-359.352l-31.825,13.238c-5.057,5.126-5.032,13.423,0.066,18.521c2.483,2.483,5.783,3.854,9.295,3.854    c3.477,0,6.748-1.342,9.225-3.779L-89.052-359.352z"/>
	</g>
	<g>
		<g>
			<path d="M97.827-374.034L50-398.117L2.173-374.034c-1.948,0.978-2.73,3.353-1.75,5.301c0.983,1.949,3.355,2.73,5.299,1.75     l2.008-1.01v34.823c0,1.814,1.478,3.287,3.291,3.287h11.513h54.932H88.98c1.813,0,3.289-1.473,3.289-3.287v-34.823l2.008,1.01     c0.565,0.287,1.174,0.422,1.771,0.422c1.443,0,2.833-0.795,3.529-2.172C100.559-370.681,99.775-373.056,97.827-374.034z      M78.124-355.65H21.876v-8.114c0-0.355,0.302-0.657,0.657-0.657h54.932c0.357,0,0.659,0.302,0.659,0.657V-355.65z      M21.876-353.018h56.248v9.1H21.876V-353.018z M22.533-332.514c-0.355,0-0.657-0.303-0.657-0.656v-8.117h56.248v8.117     c0,0.354-0.302,0.656-0.659,0.656H22.533z M89.637-333.17c0,0.354-0.302,0.656-0.656,0.656h-8.291     c0.045-0.213,0.063-0.432,0.063-0.656v-30.594c0-1.816-1.474-3.289-3.289-3.289H22.533c-1.814,0-3.287,1.473-3.287,3.289v30.594     c0,0.225,0.02,0.443,0.063,0.656H11.02c-0.355,0-0.656-0.303-0.656-0.656v-36.148L50-389.281l39.637,19.963V-333.17z"/>
			<path d="M40.956-379.168v5.264c0,1.812,1.471,3.284,3.287,3.284h11.514c1.813,0,3.287-1.473,3.287-3.284v-5.264     c0-1.814-1.474-3.292-3.287-3.292H44.243C42.427-382.46,40.956-380.982,40.956-379.168z M44.243-379.828h4.443v1.973h-5.103     v-1.313C43.584-379.524,43.885-379.828,44.243-379.828z M43.584-373.904v-1.321h5.103v1.976h-4.443     C43.885-373.25,43.584-373.549,43.584-373.904z M55.757-373.25h-4.442v-1.976h5.101v1.321     C56.414-373.549,56.111-373.25,55.757-373.25z M56.414-379.168v1.313h-5.102v-1.973h4.443     C56.111-379.828,56.414-379.524,56.414-379.168z"/>
		</g>
	</g>
	<g>
		<path d="M-479.17-253.239c-9.56,0-17.948,4.937-22.804,12.39c-4.854-7.453-13.244-12.39-22.801-12.39    c-15.026,0-27.208,12.182-27.208,27.211c0,15.023,12.182,27.259,27.208,27.259c4.68,0,9.072-1.23,12.913-3.23    c-6.388,0-13.02,0-13.053,0c0,0,27.217-38.928,27.263-38.997c0.021-0.025,0.041-0.071,0.067-0.097    c0.682-0.943,1.549-1.755,2.545-2.379c1.011-0.641,2.154-1.096,3.381-1.306c0.503-0.088,1.021-0.139,1.55-0.139    c0.523,0,1.031,0.049,1.529,0.134c4.161,0.692,7.373,4.141,7.702,8.409l7.42,3.674l-7.542,3.657v4.908c0,0.021,0,0.046,0,0.066    c0,9.23-5.66,17.112-13.731,20.365c4.392,3.062,9.756,4.883,15.523,4.883c15.029,0,27.228-12.185,27.228-27.208    C-451.98-241.058-464.141-253.239-479.17-253.239z"/>
		<circle cx="-489.037" cy="-236.342" r="1.365"/>
	</g>
	<path d="M-338.996-240h-50.006c-13.806,0-24.997,11.15-24.997,24.959s11.191,25.055,24.997,25.055   c6.23,0,11.919-2.014,16.296-6.014h17.408c4.381,4,10.066,5.992,16.297,5.992c13.809,0,25-11.188,25-24.995   S-325.192-240-338.996-240z M-373-210h-11v11h-10v-11h-10v-10h10v-11h10v11h11V-210z M-344.19-199.487   c-2.874,0-5.204-2.327-5.204-5.196c0-2.872,2.33-5.199,5.204-5.199c2.865,0,5.194,2.327,5.194,5.199   C-338.996-201.814-341.325-199.487-344.19-199.487z M-333.802-220.281c-2.869,0-5.194-2.327-5.194-5.199s2.325-5.199,5.194-5.199   c2.875,0,5.202,2.327,5.202,5.199S-330.927-220.281-333.802-220.281z"/>
	<g>
		<rect x="-366" y="-290" width="4" height="51"/>
	</g>
	<path d="M-194.691-240.307c-2.505-0.461-9.614,1.483-13.699,2.492c-5.373,1.324-9.98,2.824-12.158,6.254   c-4.398,6.925-10.306,14.762-10.258,22.39c0.057,8.925,7.182,18.045,12.266,24.21c1.467,1.777,3.672,1.903,5.305,1.757   c8.548-0.769,19.62-3.71,23.49-6.039c2.975-1.79,14.036-16.731,13.74-23.664C-176.334-220.49-186.262-238.762-194.691-240.307z    M-220.46-222.871c0.901,0,1.631,1.118,1.631,2.498c0,1.379-0.729,2.498-1.631,2.498s-1.631-1.119-1.631-2.498   C-222.091-221.753-221.361-222.871-220.46-222.871z M-226.983-206.137c-0.901,0-1.631-1.119-1.631-2.498   c0-1.38,0.729-2.498,1.631-2.498s1.631,1.118,1.631,2.498C-225.353-207.256-226.082-206.137-226.983-206.137z M-223.722-212.006   c-0.901,0-1.631-1.119-1.631-2.498c0-1.38,0.729-2.498,1.631-2.498c0.902,0,1.631,1.118,1.631,2.498   C-222.091-213.125-222.82-212.006-223.722-212.006z M-221.066-193.604c-0.901,0-1.631-1.118-1.631-2.498   c0-1.379,0.729-2.498,1.631-2.498c0.9,0,1.631,1.119,1.631,2.498C-219.436-194.722-220.166-193.604-221.066-193.604z    M-217.805-199.473c-0.901,0-1.631-1.118-1.631-2.498c0-1.379,0.729-2.498,1.631-2.498c0.9,0,1.631,1.119,1.631,2.498   C-216.174-200.591-216.904-199.473-217.805-199.473z M-214.543-205.342c-0.901,0-1.631-1.118-1.631-2.498   c0-1.379,0.729-2.498,1.631-2.498c0.9,0,1.631,1.119,1.631,2.498C-212.912-206.46-213.643-205.342-214.543-205.342z    M-212.725-226.416c-0.857-1.26-0.705-2.857,0.342-3.572c1.047-0.713,2.591-0.271,3.449,0.988c0.858,1.258,0.705,2.857-0.341,3.57   C-210.322-224.715-211.866-225.157-212.725-226.416z M-205.86-187.312c-1.419,0.856-3.003,0.831-3.538-0.056   c-0.534-0.887,0.182-2.299,1.601-3.155s3.003-0.831,3.538,0.056C-203.726-189.58-204.441-188.168-205.86-187.312z    M-208.391-200.453c-2.784-0.537-0.503-6.136-1.244-8.718c3.921-0.601,2.82,3.825,7.472,2.492   C-204.025-204.393-207.359-203.572-208.391-200.453z M-200.857-210.68c-1.047,0.715-2.592,0.272-3.449-0.986   c-0.858-1.26-0.706-2.857,0.341-3.572c1.047-0.713,2.591-0.271,3.45,0.988C-199.658-212.992-199.811-211.393-200.857-210.68z    M-193.441-229.596c-1.047,0.715-2.592,0.271-3.449-0.986c-0.858-1.26-0.706-2.858,0.341-3.572c1.047-0.714,2.591-0.271,3.45,0.987   C-192.242-231.908-192.395-230.309-193.441-229.596z M-188.475-215.832c-0.857-1.26-0.705-2.858,0.342-3.572   c1.047-0.714,2.591-0.271,3.449,0.987s0.705,2.858-0.341,3.571C-186.072-214.131-187.616-214.574-188.475-215.832z    M-184.027-202.863c-1.419,0.856-3.002,0.832-3.537-0.055s0.182-2.3,1.6-3.156c1.419-0.855,3.002-0.83,3.537,0.057   C-181.892-205.13-182.609-203.719-184.027-202.863z"/>
	<path d="M-260.572-269.494c-9.633,9.768-16.347,27.355-15.325,44.571c0.129,2.185,0.533,3.254,1.891,4.351   c6.969,5.63,16.785,8.412,28.237,9.557c1.44,0.145,3.134-0.754,3.763-1.766c7.463-12.023,13.133-25.842,13.652-44.809   c0.039-1.455,0.157-1.702-0.642-2.3c-6.593-4.941-20.312-8.521-27.31-10.046C-258.171-270.34-259.874-270.201-260.572-269.494z    M-240.001-243.465c0,1.381-1.567,2.5-3.5,2.5s-3.5-1.119-3.5-2.5c0-1.381,1.567-2.5,3.5-2.5S-240.001-244.846-240.001-243.465z    M-249.501-255.965c1.933,0,3.5,1.119,3.5,2.5c0,1.381-1.567,2.5-3.5,2.5s-3.5-1.119-3.5-2.5   C-253.001-254.846-251.434-255.965-249.501-255.965z M-256.501-265.965c1.933,0,3.5,1.119,3.5,2.5c0,1.381-1.567,2.5-3.5,2.5   s-3.5-1.119-3.5-2.5C-260.001-264.846-258.434-265.965-256.501-265.965z M-265.518-221.635c-0.723,1.178-2.644,1.312-4.291,0.301   s-2.397-2.784-1.676-3.961c0.723-1.178,2.644-1.312,4.291-0.301C-265.547-224.585-264.796-222.812-265.518-221.635z    M-262.518-235.635c-0.723,1.178-2.644,1.312-4.291,0.301s-2.397-2.784-1.676-3.961c0.723-1.178,2.644-1.312,4.291-0.301   C-262.547-238.585-261.796-236.812-262.518-235.635z M-255.518-225.635c-0.723,1.178-2.644,1.312-4.291,0.301   s-2.397-2.784-1.676-3.961c0.723-1.178,2.644-1.312,4.291-0.301C-255.547-228.585-254.796-226.812-255.518-225.635z    M-248.518-215.635c-0.723,1.178-2.644,1.312-4.291,0.301s-2.397-2.784-1.676-3.961c0.723-1.178,2.644-1.312,4.291-0.301   C-248.547-218.585-247.796-216.812-248.518-215.635z M-245.518-229.635c-0.723,1.178-2.644,1.312-4.291,0.301   s-2.397-2.784-1.676-3.961c0.723-1.178,2.644-1.312,4.291-0.301C-245.547-232.585-244.796-230.812-245.518-229.635z    M-244.514-235.701c0.519-2.802,6.828,0.186,6.228-3.738c3.241,1.735-0.907,6.448-1.246,8.721   C-242.072-231.502-239.881-237.013-244.514-235.701z"/>
	<path d="M-77.704-225.123l16.165-16.164l8.194,8.193l9.095-0.31l-12.587-12.586l-2.608-2.607l14.628-14.625   c1.796,0.249,3.683-0.293,5.062-1.675c2.339-2.341,2.339-6.132,0.003-8.472c-2.342-2.34-6.134-2.34-8.473,0   c-1.383,1.383-1.926,3.268-1.677,5.065l-14.625,14.624l-2.606-2.605l-12.586-12.588l-0.31,9.095l8.193,8.195l-16.162,16.165   l-16.169-16.168l8.193-8.193l-0.31-9.095l-12.586,12.586l-2.606,2.607l-14.625-14.625c0.249-1.796-0.291-3.681-1.674-5.063   c-2.339-2.34-6.131-2.34-8.47-0.001c-2.343,2.341-2.343,6.132,0,8.473c1.38,1.382,3.267,1.924,5.062,1.673l14.625,14.625   l-2.605,2.605l-12.59,12.588l9.098,0.309l8.194-8.193l16.165,16.167l-37.188,37.188l-0.761,11.059l42.758-43.44l4.727-4.801   l0.762-0.773l4.723-4.801l16.039-16.292l1.098,1.099l-16.29,16.038l-4.809,4.729l-0.761,0.749l-4.806,4.734l-43.44,42.758   l11.054-0.764l37.192-37.189l37.186,37.188l11.06,0.764l-43.44-42.758l0.683-0.682l42.758,43.439l-0.767-11.059L-77.704-225.123z    M-93.567-229.851l-16.293-16.039l1.098-1.098l16.039,16.296L-93.567-229.851z"/>
	<path d="M79.605-268.82c-0.559,3.083-13.599,75.437-13.975,77.6c-0.852,4.887-4.48,8.916-9.242,10.273   c-6.889,1.959-14.084-2.052-16.043-8.935l-19.492-68.566c-1.552-5.459,1.627-11.16,7.084-12.712   c5.456-1.549,11.156,1.627,12.709,7.087l13.723,48.271c1.051,3.687-1.096,7.541-4.781,8.586c-3.691,1.051-7.54-1.099-8.592-4.787   l-11.156-39.26l-4.28,1.215l11.157,39.265c1.721,6.045,8.041,9.567,14.085,7.847c6.046-1.72,9.567-8.037,7.849-14.085   l-13.725-48.27c-2.221-7.816-10.387-12.368-18.202-10.146c-7.816,2.221-12.371,10.39-10.144,18.206l19.486,68.562   c2.627,9.245,12.289,14.63,21.538,12.002c6.396-1.821,11.271-7.234,12.414-13.791c0.375-2.149,13.83-76.817,13.967-77.575   L79.605-268.82z"/>
	<path d="M-452-105.832v-3.109c-12.973-0.484-25.061,1.035-36.193,4.598l22.91-12.229c0.506,0.523,1.219,0.853,2.004,0.853   c1.547,0,2.808-1.255,2.808-2.802c0-1.553-1.261-2.807-2.808-2.807c-1.553,0-2.808,1.254-2.808,2.807   c0,0.195,0.073,0.366,0.116,0.555l-26.942,14.372l-4.567-7.874l-16.521,9.573l4.227,7.302l-37.32,19.914   c-0.512-0.523-1.218-0.853-2.003-0.853c-1.554,0-2.808,1.255-2.808,2.808c0,1.547,1.254,2.802,2.808,2.802   c1.546,0,2.802-1.255,2.802-2.802c0-0.201-0.074-0.371-0.11-0.555l29.749-15.876C-534.233-75.206-545.789-55.673-552-38h3.309   c6.9-19.104,20.146-40.248,40.67-53.573l3.592,6.206l16.529-9.58l-2.99-5.151C-479.074-104.453-466.09-106.365-452-105.832z"/>
	<path d="M-410.904-130.546c-1.429-0.626-2.317,0.106-1.976,1.628l18.426,82.107c0.342,1.521,1.666,2.034,2.943,1.14l21.628-15.143   c1.277-0.895,3.034-0.567,3.904,0.727l7.062,10.504c0.869,1.294,2.024,1.156,2.566-0.306l8.72-23.519   c0.542-1.462,0.185-1.666-0.796-0.453l-3.129,3.877c-0.98,1.213-3.057,2.231-4.615,2.264l-1.122,0.022   c-1.559,0.032-3.627-0.94-4.596-2.162l-35.244-44.436c-0.969-1.222-0.753-1.439,0.479-0.485l47.767,36.979   c1.232,0.954,3.443,1.308,4.912,0.785l27.802-9.896c1.469-0.522,1.503-1.462,0.074-2.088L-410.904-130.546z"/>
	<g>
		<path d="M-213.28-107.673c0-7.024-5.696-12.72-12.72-12.72s-12.72,5.695-12.72,12.72c0,7.023,5.695,12.713,12.72,12.713    C-218.977-94.96-213.28-100.649-213.28-107.673z M-230.895-107.673c0-2.703,2.191-4.895,4.895-4.895    c2.696,0,4.888,2.191,4.888,4.895c0,2.696-2.191,4.888-4.888,4.888C-228.703-102.785-230.895-104.977-230.895-107.673z"/>
		<path d="M-183.562-41.491l-34.813-8.303l34.813-8.31c0.954-0.229,1.542-1.182,1.314-2.129c-0.229-0.954-1.176-1.541-2.137-1.313    l-36.301,8.662c3.63-21.341,25.012-36.245,25.012-55.343C-195.673-124.672-209.25-138-226-138    c-16.751,0-30.327,13.328-30.327,29.773c0,19.098,21.485,34.002,25.018,55.343l-36.313-8.662c-0.947-0.228-1.901,0.359-2.13,1.313    c-0.228,0.947,0.359,1.9,1.307,2.129l34.821,8.31l-34.821,8.303c-0.947,0.228-1.534,1.183-1.307,2.136    c0.193,0.809,0.92,1.355,1.722,1.355c0.132,0,0.27-0.014,0.408-0.049l37.198-8.869c0.774,1.666,2.461,2.834,4.425,2.834    s3.644-1.168,4.425-2.834l37.191,8.869c0.139,0.035,0.276,0.049,0.414,0.049c0.803,0,1.528-0.547,1.723-1.355    C-182.02-40.309-182.607-41.264-183.562-41.491z M-246.546-107.673c0-11.351,9.195-20.546,20.546-20.546    c11.345,0,20.546,9.195,20.546,20.546c0,11.345-9.201,20.549-20.546,20.549C-237.351-87.124-246.546-96.328-246.546-107.673z"/>
	</g>
	<g>
		<g>
			<path d="M-66.087-106.914c-0.517,0-0.938-0.424-0.938-0.938v-13.084c0-0.518-0.421-0.939-0.937-0.939h-40.076     c-0.518,0-0.938,0.422-0.938,0.939v13.084c0,0.514-0.42,0.938-0.938,0.938h-27.15c-0.517,0-0.938,0.424-0.938,0.938v14.545     c0,0.512,0.421,0.936,0.938,0.936h43.721c0.518,0,0.941-0.424,0.941-0.936v-3.104c0-0.514,0.424-0.936,0.941-0.936h6.92     c0.518,0,0.94,0.422,0.94,0.936v3.104c0,0.512,0.424,0.936,0.94,0.936h43.721c0.518,0,0.938-0.424,0.938-0.936v-14.545     c0-0.514-0.42-0.938-0.938-0.938H-66.087z M-102.389-106.914c-0.518,0-0.938-0.424-0.938-0.938v-7.438     c0-0.518,0.42-0.938,0.938-0.938h28.779c0.517,0,0.938,0.42,0.938,0.938v7.438c0,0.514-0.421,0.938-0.938,0.938H-102.389z"/>
		</g>
		<g>
			<path d="M-83.599-75.582c0,0.514-0.423,0.938-0.94,0.938h-6.92c-0.518,0-0.941-0.424-0.941-0.938v-10.455     c0-0.514-0.424-0.938-0.941-0.938h-43.721c-0.517,0-0.938,0.424-0.938,0.938v30.975c0,0.514,0.421,0.938,0.938,0.938h98.125     c0.518,0,0.938-0.424,0.938-0.938v-30.975c0-0.514-0.42-0.938-0.938-0.938h-43.721c-0.517,0-0.94,0.424-0.94,0.938     L-83.599-75.582L-83.599-75.582z"/>
		</g>
	</g>
	<g>
		<polygon points="86.264,-79.951 75.716,-65.316 69.627,-63.977 86.656,-87.615   "/>
		<polygon points="85.625,-67.488 82.662,-66.838 85.816,-71.219   "/>
		<polygon points="87.104,-96.352 62.686,-62.45 56.596,-61.118 87.492,-104.004   "/>
		<polygon points="87.939,-112.736 49.653,-59.592 43.568,-58.256 88.329,-120.396   "/>
		<path d="M10.4-39.57l83.682-17.643c1.404-0.301,2.428-1.502,2.504-2.936L100-126.945c0-0.049,0-0.105,0-0.158    c0-0.864-0.354-1.697-0.99-2.293l-6.588-6.232c-0.752-0.714-1.807-1.015-2.818-0.799l-83.68,17.646    c-1.405,0.297-2.432,1.502-2.506,2.936L0.004-49.053c-0.045,0.93,0.312,1.826,0.986,2.455l6.59,6.228    C8.334-39.651,9.391-39.359,10.4-39.57z M18.621-114.998L9.025-101.67l0.441-8.736l2.266-3.134L18.621-114.998z M31.556-117.722    L8.185-85.285l0.446-8.732l16.031-22.25L31.556-117.722z M44.489-120.449L7.352-68.889l0.447-8.736l29.797-41.371L44.489-120.449z     M57.42-123.178L6.694-52.76l-0.162-0.117l0.427-8.359l43.575-60.488L57.42-123.178z M10.718-46.102l-4.243-4.007l4.08-0.901    l52.909-73.442l6.894-1.458L17.501-52.532l6.09-1.336l52.812-73.312l6.894-1.454L30.537-55.395l6.089-1.335l51.919-72.079    l0.211,0.146l0.053-1.137l0.476-0.102l4.323,4.092L90.398-62.9L10.718-46.102z"/>
	</g>
	<g>
		<path d="M-454.777,11.806h-94.446c-1.533,0-2.776,1.244-2.776,2.777v70.835c0,1.533,1.243,2.775,2.776,2.775h94.446    c1.533,0,2.777-1.242,2.777-2.775V14.583C-452,13.05-453.244,11.806-454.777,11.806z M-457.553,17.358v6.729h-51.273    c-0.312,0-0.578-0.266-0.578-0.578V22.47c0-0.895-0.35-1.736-0.987-2.371c-0.636-0.631-1.46-1.02-2.372-0.977l-14.116,0.045    c-1.847,0.008-3.351,1.516-3.351,3.363v1.038c0,0.204-0.105,0.342-0.169,0.403c-0.063,0.064-0.2,0.17-0.403,0.17h-0.002    l-15.643-0.046v-6.737H-457.553z M-546.447,27.792v-0.92l15.635,0.047c0.004,0,0.006,0,0.01,0c0.891,0,1.73-0.348,2.363-0.98    c0.637-0.634,0.986-1.476,0.986-2.37V22.53c0-0.316,0.267-0.585,0.582-0.586l14.117-0.047l0,0c0.204,0,0.34,0.106,0.403,0.168    s0.169,0.2,0.169,0.404v1.039c0,1.851,1.506,3.355,3.355,3.355h51.273v0.928L-546.447,27.792L-546.447,27.792z M-546.447,30.567    h11.646v52.074h-11.646V30.567z M-532.023,82.643V30.567h74.471v52.074h-74.471V82.643z"/>
		<circle cx="-543.363" cy="20.503" r="1.967"/>
		<circle cx="-538.387" cy="20.503" r="1.967"/>
		<circle cx="-533.412" cy="20.503" r="1.967"/>
	</g>
	<path d="M-322.203,58.625c-0.197,0-0.393,0.018-0.588,0.029l-3.741-8.096c-0.001-0.002-0.001-0.002-0.003-0.004l-9.725-21.042   c1.456-1.48,2.355-3.51,2.355-5.75c0-4.529-3.672-8.202-8.201-8.202c-2.955,0-5.537,1.567-6.981,3.911l-31.989-6.15   c-0.663-3.865-4.021-6.809-8.074-6.809c-4.531,0-8.203,3.674-8.203,8.203c0,2.736,1.346,5.154,3.406,6.645l-12.641,46.713   c-4.159,0.398-7.412,3.9-7.412,8.162c0,4.531,3.672,8.203,8.203,8.203c2.955,0,5.537-1.568,6.98-3.912l31.988,6.152   c0.664,3.862,4.021,6.807,8.075,6.807c4.53,0,8.202-3.672,8.202-8.202c0-0.296-0.017-0.587-0.047-0.874l22.858-11.543   c1.46,1.34,3.399,2.164,5.536,2.164c4.531,0,8.203-3.674,8.203-8.203S-317.672,58.625-322.203,58.625z M-382.17,19.008   l31.988,6.151c0.37,2.155,1.577,4.018,3.278,5.249l-3.921,14.488l-23.124-4.188l-9.356-20.243   C-382.873,20.026-382.495,19.535-382.17,19.008z M-328.049,61.079c-0.432,0.438-0.81,0.931-1.135,1.458l-12.83-2.467l11.375-4.594   L-328.049,61.079z M-345.105,45.932l3.713-13.723l7.262,15.711L-345.105,45.932z M-379.851,41.74l-15.274,6.139l6.688-24.717   L-379.851,41.74z M-397.334,56.043l18.609,3.279l-21.535,10.875c-0.236-0.215-0.482-0.418-0.74-0.604L-397.334,56.043z    M-374.784,63.82c1.46,1.339,3.399,2.162,5.537,2.162c2.897,0,5.438-1.506,6.897-3.772l6.529,1.151l-3.723,13.76   c-2.623,0.252-4.877,1.74-6.191,3.873l-31.184-5.998L-374.784,63.82z M-353.955,78.641l3.85-14.229l19.023,3.657l-22.134,11.177   C-353.451,79.029-353.697,78.828-353.955,78.641z"/>
	<path d="M-209.823,0H-226h-16.177v3.724h4.445v84.323c0,6.592,5.263,11.953,11.731,11.953c6.468,0,11.731-5.361,11.731-11.953   V3.724h4.445V0H-209.823z M-226,96.279c-4.416,0-8.012-3.694-8.012-8.232V36.559h16.023v51.488   C-217.988,92.585-221.584,96.279-226,96.279z"/>
	<g>
		<path d="M-132.617,35.007c-1.196,0-3.049,0.838-3.049,3.469l0.479,30.383l3.436,0.719c0,0,3.919-19.68,3.919-26.316    C-127.833,36.62-131.422,35.007-132.617,35.007z"/>
		<path d="M-51.729,32.266c-9.221-3.708-21.848-5.751-35.555-5.751c-31.557,0-50.717,0.772-50.717,11.482    c0,9.948,0.711,32.696,0.718,32.926l0.022,0.702l6.664,1.859h3.76l23.568-14.983l10.135,12.989h17.373l7.314-11.194l6.291,11.194    h7.878h0.606h7.158l0.268-0.514C-45.906,70.334-38,55.109-38,45.299C-38,40.525-43.004,35.774-51.729,32.266z M-47.678,69.577    h-5.387l-7.177-15.19h-40.118l-27.034,17.186h-2.94l-5.057-1.412c-0.12-3.924-0.695-23.231-0.695-32.162    c0-8.902,19.323-9.568,48.803-9.568c13.468,0,25.841,1.993,34.841,5.613c7.845,3.154,12.528,7.363,12.528,11.257    C-39.914,53.67-46.296,66.826-47.678,69.577z"/>
	</g>
	<g>
		<path d="M152,43.77c0-0.164,0.045-0.322,0.124-0.457C152.045,43.447,152,43.605,152,43.77z"/>
		<path d="M152.45,42.979c-0.093,0.055-0.15,0.143-0.218,0.221c0.068-0.084,0.134-0.172,0.23-0.227L152.45,42.979z"/>
		<path d="M251.876,54.967c-0.024-0.045-0.076-0.072-0.108-0.111c-0.066-0.078-0.125-0.168-0.218-0.221l-0.014-0.008l-0.001-0.002    h-0.001l-19.166-11.379v-24.67c0-0.164-0.046-0.322-0.124-0.459c-0.025-0.045-0.075-0.072-0.107-0.111    c-0.066-0.08-0.127-0.168-0.219-0.221l-0.014-0.008c0-0.002-0.002-0.002-0.002-0.002s0,0-0.002,0L212.286,6.129    c-0.289-0.172-0.649-0.172-0.94,0L172.1,29.432c-0.002,0-0.002,0-0.002,0l-0.002,0.002l-0.014,0.006    c-0.092,0.055-0.15,0.143-0.219,0.221c-0.032,0.041-0.082,0.068-0.107,0.113c-0.079,0.135-0.124,0.293-0.124,0.457v1.361    l-19.166,11.379h-0.001c0,0-0.001,0-0.001,0.002c-0.099,0.055-0.162,0.143-0.229,0.227c-0.034,0.041-0.084,0.068-0.109,0.113    c-0.08,0.134-0.125,0.292-0.125,0.457v25.195c0,0.324,0.171,0.625,0.45,0.791l39.264,23.311c0.002,0.002,0.007,0,0.009,0.002    s0.004,0.007,0.006,0.009c0.143,0.08,0.299,0.118,0.457,0.118c0.155,0,0.312-0.038,0.455-0.118    c0.002-0.002,0.004-0.007,0.008-0.009c0-0.002,0.004,0,0.006-0.002l19.162-11.377l19.162,11.377c0.002,0.002,0.006,0,0.008,0.002    c0.004,0.002,0.004,0.007,0.007,0.009c0.142,0.08,0.298,0.118,0.456,0.118c0.156,0,0.312-0.038,0.455-0.118    c0.002-0.002,0.004-0.007,0.008-0.009c0.002-0.002,0.005,0,0.007-0.002L251.55,81.41c0.279-0.164,0.45-0.465,0.45-0.791V55.426    C252,55.262,251.955,55.104,251.876,54.967z M193.104,65.465v-20.08V42.41l37.424-22.219v23.055L193.104,65.465z M211.814,7.988    l17.83,10.588L211.82,29.158l-19.637,11.658l-17.83-10.586L211.814,7.988z M191.264,42.41v1.359v21.695l-17.791-10.562V31.846    L191.264,42.41z"/>
	</g>
	<path d="M243.191-40.986c-2.582-0.943-26.322-10.657-26.322-10.657s-4.051-2.045-4.33-4.183l-0.169-1.316   c0.085-2.152,3.96-4.551,3.96-4.551s22.807-11.717,25.303-12.871c2.5-1.167,8.785-7.972,2.164-13.844   c-6.613-5.864-16.186-3.43-22.359-0.557c-6.181,2.884-7.629,10.984-6.054,14.377c1.591,3.4-0.458,5.539-3.993,7.18   c-3.543,1.647-4.871,5.133-4.871,5.133v0.125c-2.381-1.525-5.555-2.127-5.555-2.127s-29.783-7.921-39.518-9.779   C151.711-75.93,149-72.107,149-72.107L195.559-55.9l-2.34,1.088L149.797-36.71c0,0,2.812,3.5,12.014,1.152   c9.217-2.333,37.014-11.663,37.014-11.663c3.191-1.18,5.242-1.96,5.242-1.96s1.445-0.423,3.072-1.263l0.012,0.229   c0,0,1.629,3.354,5.293,4.692c3.666,1.336,5.882,3.285,4.607,6.813c-1.291,3.514,0.861,11.467,7.26,13.801   c6.399,2.33,16.158,3.934,22.234-2.48C252.637-33.803,245.787-40.04,243.191-40.986z M226.434-86.008   c8.308-4.078,11.959,2.861,11.959,2.861c2.494,8.658-8.863,10.717-14.51,9.361C218.25-75.136,218.121-81.926,226.434-86.008z    M240.615-31.25c0,0-2.889,7.279-11.583,4.113c-8.696-3.176-9.296-9.938-3.833-11.884C230.662-40.978,242.17-40.136,240.615-31.25z   "/>
</g>
<g>
	<path fill="#000000" d="M90.379,32.314c-0.038,0-0.074,0.005-0.112,0.006v-0.001c-0.005,0-0.013,0.001-0.019,0.002   c-0.22,0.005-0.438,0.026-0.652,0.061c-0.61,0.058-1.484,0.143-2.557,0.247c-5.958,0.58-19.909,1.937-22.111,1.826   c-0.005,0-0.01-0.001-0.016-0.001c0.037-0.701,0.815-2.373,1.298-3.409c0.353-0.757,0.717-1.54,0.993-2.265   c0.61-1.604-0.071-3.115-1.777-3.943c-1.945-0.945-5.596-1.072-6.651,0.688c-0.764,1.273-5.367,6.731-8.701,9.51   c-1.375,1.146-9.522,2.393-16.71,3.493c-9.204,1.409-19.635,3.005-26.107,5.414L7.13,43.996c-4.465,2.232-7.326,7.768-7.119,13.775   c0.128,3.718,1.725,12.907,13.756,17.92l0.37,0.154l0.392-0.083c20.645-4.404,58.386-4.4,74.5-4.391h1.351   c5.396,0,9.621-8.578,9.621-19.529C100,40.892,95.774,32.314,90.379,32.314z M90.379,34.88c3.337,0,7.056,6.966,7.056,16.962   c0,4.991-0.927,9.226-2.271,12.217l-0.616-1.285c1.137-2.639,1.959-6.36,1.959-10.932c0-9.389-3.63-15.381-6.128-15.381   c-1.499,0-3.342,2.008-4.614,5.584l-0.632-1.3C86.521,37.066,88.51,34.88,90.379,34.88z M64.015,67.338   c-10.777,1.082-24.398,2.45-35.351,3.322c-5.228,0.259-10.353,0.496-15.17,0.703c11.121-1.282,41.836-3.749,67.074-5.646   C76.72,66.072,71.396,66.597,64.015,67.338z M62.354,34.707c-0.274,0.016-0.586,0.036-0.954,0.062   c0.318-0.051,0.634-0.1,0.952-0.15C62.354,34.648,62.354,34.678,62.354,34.707z M81.506,38.832c0.562-0.024,1.119-0.047,1.673-0.07   c-0.055,0.125-0.109,0.254-0.163,0.383c-0.882,0.077-1.827,0.159-2.837,0.247c-5.281,0.417-12.175,0.824-19.342,1.209   c2.277-0.241,4.533-0.476,6.727-0.695C72.773,39.486,77.633,39.107,81.506,38.832z M74.903,41.426   c2.79-0.16,5.282-0.272,7.398-0.329c-0.089,0.278-0.174,0.561-0.256,0.849c-6.084,0.747-16.822,1.68-35.726,2.725   c-5.764,0.318-11.516,0.604-16.816,0.851c5.516-0.381,12.497-0.943,21.335-1.749C59.413,42.992,67.957,42.141,74.903,41.426z    M80.921,55.492c0.007,0.08,0.013,0.161,0.021,0.241c-6.264,0.488-13.625,1.057-21.297,1.641c0.061-0.007,0.121-0.013,0.181-0.02   L80.921,55.492z M69,45.957c-4.529,0.33-9.409,0.679-14.243,1.023c-2.522,0.18-5.062,0.361-7.592,0.542   c2.96-0.311,5.921-0.617,8.826-0.908c1.275-0.082,2.503-0.163,3.685-0.244c0.241-0.01,0.482-0.021,0.723-0.031   C63.573,46.201,66.43,46.074,69,45.957z M20.136,49.034c-5.452,0.507-10.085,0.843-13.054,0.857   c0.79-0.132,1.736-0.271,2.871-0.416C12.299,49.436,15.567,49.306,20.136,49.034z M54.849,48.26   c9.229-0.659,17.959-1.282,24.454-1.787c-0.394,0.043-0.801,0.088-1.222,0.135c-8.091,0.896-18.979,2.104-30.032,3.204   l-30.367,2.124c-5.637,0.246-10.222,0.428-12.998,0.534c-0.307-0.03-0.569-0.064-0.793-0.1   C10.301,51.438,35.732,49.624,54.849,48.26z M20.823,55.195l-17.301,1.33C6.528,56.01,13.058,55.578,20.823,55.195z M3.806,58.819   c3.906,0.056,12.079-0.558,26.738-1.899c1.336-0.055,2.681-0.108,4.022-0.16C20.262,58.197,6.498,59.44,2.782,59.065   C3.06,58.981,3.402,58.899,3.806,58.819z M15.66,59.966l-5.034,0.444c-1.109,0.039-2.075,0.061-2.916,0.068   C9.898,60.339,12.594,60.166,15.66,59.966z M16.187,66.316c1.357-0.063,2.801-0.131,4.316-0.204   c-5.838,0.479-10.64,0.796-13.308,0.805C9.116,66.837,11.977,66.646,16.187,66.316z M56.717,64.633   c-3.499,0.314-7.22,0.648-10.992,0.983c-6.057,0.42-12.312,0.824-18.459,1.2c5.883-0.527,13.097-1.212,21.871-2.062   c1.463-0.142,2.941-0.285,4.425-0.428c12.323-0.762,20.517-1.411,25.982-1.959c0.943-0.061,1.815-0.122,2.632-0.184   c0.024,0.081,0.05,0.16,0.075,0.24C77.269,62.807,69.352,63.496,56.717,64.633z M84.583,42.396l0.755,0.984   c-0.11,0.386-0.212,0.788-0.309,1.202l-0.809-0.821C84.333,43.29,84.454,42.835,84.583,42.396z M91.859,57.627   c-0.479,0.989-1.029,1.545-1.48,1.545c-1.035,0-2.601-2.924-2.601-7.33c0-4.405,1.565-7.329,2.601-7.329s2.601,2.923,2.601,7.329   c0,2.344-0.444,4.262-1.015,5.55l-0.269-0.561L91.859,57.627z M93.407,51.842c0-4.57-1.596-7.756-3.028-7.756   c-0.814,0-1.683,1.034-2.279,2.764l-0.495-1.02c0.769-2.426,1.904-3.858,2.774-3.858c1.446,0,3.634,3.937,3.634,9.87   c0,2.968-0.547,5.436-1.274,7.161l-0.526-1.097C92.905,56.532,93.407,54.405,93.407,51.842z M88.07,46.943   c-0.435,1.299-0.72,2.974-0.72,4.899c0,4.572,1.596,7.758,3.028,7.758c0.549,0,1.121-0.471,1.618-1.305l0.324,1.571   c-0.639,1.182-1.352,1.847-1.942,1.847c-1.447,0-3.634-3.937-3.634-9.871c0-2.189,0.299-4.104,0.747-5.652L88.07,46.943z    M86.317,51.842c0,5.895,2.145,10.299,4.062,10.299c0.7,0,1.431-0.59,2.076-1.624l0.327,1.588c-0.796,1.382-1.673,2.15-2.403,2.15   c-1.858,0-4.667-4.951-4.667-12.413c0-2.133,0.23-4.061,0.602-5.728l0.25,0.026l-0.207-0.21c0.073-0.315,0.151-0.622,0.233-0.917   l0.577,0.751C86.648,47.444,86.317,49.527,86.317,51.842z M85.986,45.554l-0.578-0.587c0.087-0.389,0.181-0.765,0.28-1.129   l0.562,0.732C86.156,44.886,86.068,45.214,85.986,45.554z M85.868,46.067c-0.363,1.674-0.584,3.61-0.584,5.774   c0,7.956,2.967,12.841,5.095,12.841c0.793,0,1.704-0.681,2.534-1.946l0.328,1.595c-0.953,1.587-1.992,2.466-2.862,2.466   c-2.27,0-5.7-5.965-5.7-14.955c0-2.132,0.194-4.092,0.52-5.845L85.868,46.067z M92.987,59.522c0.851-1.854,1.453-4.558,1.453-7.681   c0-5.894-2.145-10.298-4.062-10.298c-1.088,0-2.248,1.418-3.049,3.722l-0.504-1.036c0.987-3.025,2.44-4.8,3.553-4.8   c1.857,0,4.667,4.951,4.667,12.412c0,3.598-0.653,6.608-1.538,8.765L92.987,59.522z M95.474,51.842   c0-7.955-2.968-12.839-5.095-12.839c-1.244,0-2.774,1.673-3.832,4.652l-0.495-1.019c1.206-3.623,2.973-5.748,4.327-5.748   c2.27,0,5.7,5.964,5.7,14.954c0,4.229-0.759,7.788-1.8,10.372l-0.512-1.067C94.752,58.935,95.474,55.763,95.474,51.842z    M50.85,37.549c1.898-0.22,3.904-0.434,5.593-0.614c2.005-0.213,3.899-0.415,5.271-0.583c0.477-0.058,0.874-0.107,1.21-0.155   c0.131,0.151,0.295,0.3,0.504,0.429c-1.53,0.138-3.073,0.277-4.614,0.417c-2.988,0.271-5.776,0.524-8.359,0.762   c-0.067,0.003-0.13,0.006-0.195,0.009C50.472,37.726,50.669,37.638,50.85,37.549z M90.379,68.805   c-3.338,0-7.056-6.966-7.056-16.963c0-2.15,0.173-4.16,0.476-5.991l0.951,0.1c-0.313,1.759-0.499,3.729-0.499,5.892   c0,9.53,3.569,15.383,6.128,15.383c0.938,0,2.01-0.789,2.994-2.254l0.336,1.631C92.659,68.019,91.497,68.805,90.379,68.805z"/>
	<path fill="#000000" d="M90.379,46.627c-1.082,0-1.995,2.388-1.995,5.214c0,2.827,0.913,5.216,1.995,5.216   c1.081,0,1.995-2.389,1.995-5.216C92.374,49.016,91.46,46.627,90.379,46.627z M90.379,56.63c-0.625,0-1.568-1.909-1.568-4.788   c0-2.877,0.943-4.787,1.568-4.787c0.624,0,1.567,1.909,1.567,4.787C91.946,54.721,91.003,56.63,90.379,56.63z"/>
	<path fill="#000000" d="M90.379,49.169c-0.661,0-0.962,1.386-0.962,2.673c0,1.288,0.301,2.674,0.962,2.674s0.962-1.386,0.962-2.674   C91.341,50.555,91.04,49.169,90.379,49.169z"/>
</g>
</svg>